999
FreeCAD v0.19 22846 (Git)
  0
SECTION
  2
HEADER
  9
$ACADVER
  1
AC1014
  9
$ACADMAINTVER
 70
     9
  9
$DWGCODEPAGE
  3
ANSI_1252
  9
$TEXTSTYLE
  7
STANDARD
  9
$DIMSTYLE
  2
STANDARD
  9
$DIMTXSTY
  7
STANDARD
  9
$CMLSTYLE
  2
STANDARD
  9
$PEXTMAX
 10
50
 20
50
 30
50
  9
$PEXTMIN
 10
0
 20
0
 30
0
  9
$HANDSEED
  5
FFFF
  0
ENDSEC
  0
SECTION
  2
CLASSES
  0
CLASS
  1
ACDBDICTIONARYWDFLT
  2
AcDbDictionaryWithDefault
  3
ObjectDBX Classes
 90
        0
280
     0
281
     0
  0
CLASS
  1
XRECORD
  2
AcDbXrecord
  3
ObjectDBX Classes
 90
        0
280
     0
281
     0
  0
CLASS
  1
LWPOLYLINE
  2
AcDbPolyline
  3
ObjectDBX Classes
 90
        0
280
     0
281
     1
  0
ENDSEC
  0
SECTION
  2
TABLES
  0
TABLE
  2
VPORT
  5
20
330
0
100
AcDbSymbolTable
 70
     1
  0
VPORT
  5
21
330
20
100
AcDbSymbolTableRecord
100
AcDbViewportTableRecord
  2
*ACTIVE
 70
     0
  0
ENDTAB
  0
TABLE
  2
LTYPE
  5
22
330
0
100
AcDbSymbolTable
 70
     1
  0
LTYPE
  5
23
330
21
100
AcDbSymbolTableRecord
100
AcDbLinetypeTableRecord
  2
BYBLOCK
 70
     0
  3

 72
    65
 73
     0
 40
0.0
  0
LTYPE
  5
24
330
21
100
AcDbSymbolTableRecord
100
AcDbLinetypeTableRecord
  2
BYLAYER
 70
     0
  3

 72
    65
 73
     0
 40
0.0
  0
LTYPE
  5
25
330
21
100
AcDbSymbolTableRecord
100
AcDbLinetypeTableRecord
  2
CONTINUOUS
 70
     0
  3
Solid line
 72
    65
 73
     0
 40
0.0
  0
ENDTAB
  0
TABLE
  2
LAYER
  5
A59
330
0
100
AcDbSymbolTable
 70
5
  0
LAYER
  5
A5A
330
A59
100
AcDbSymbolTableRecord
100
AcDbLayerTableRecord
  2
0
 70
   0
 62
   7
  6
CONTINUOUS
  0
LAYER
  5
A5B
330
A59
100
AcDbSymbolTableRecord
100
AcDbLayerTableRecord
  2
none
 70
    0
 62
    7
  6
CONTINUOUS
  0
LAYER
  5
A5C
330
A59
100
AcDbSymbolTableRecord
100
AcDbLayerTableRecord
  2
Sketch002
 70
    0
 62
    7
  6
CONTINUOUS
  0
LAYER
  5
A5D
330
A59
100
AcDbSymbolTableRecord
100
AcDbLayerTableRecord
  2
Sketch001
 70
    0
 62
    7
  6
CONTINUOUS
  0
LAYER
  5
A5E
330
A59
100
AcDbSymbolTableRecord
100
AcDbLayerTableRecord
  2
Sketch
 70
    0
 62
    7
  6
CONTINUOUS
  0
ENDTAB
  0
TABLE
  2
STYLE
  5
70
330
0
100
AcDbSymbolTable
 70
     2
  0
STYLE
  5
71
330
70
100
AcDbSymbolTableRecord
100
AcDbTextStyleTableRecord
  2
STANDARD
 70
     0
 40
0.0
 41
1.0
 50
0.0
 71
     0
 42
2.5
  3
arial.ttf
  4

  0
STYLE
  5
72
330
70
100
AcDbSymbolTableRecord
100
AcDbTextStyleTableRecord
  2
ANNOTATIVE
 70
     0
 40
0.0
 41
1.0
 50
0.0
 71
     0
 42
2.5
  3
arial.ttf
  4

  0
ENDTAB
  0
TABLE
  2
VIEW
  5
73
330
0
100
AcDbSymbolTable
 70
     0
  0
ENDTAB
  0
TABLE
  2
UCS
  5
74
330
0
100
AcDbSymbolTable
 70
     0
  0
ENDTAB
  0
TABLE
  2
APPID
  5
75
330
0
100
AcDbSymbolTable
 70
     2
  0
APPID
  5
76
330
75
100
AcDbSymbolTableRecord
100
AcDbRegAppTableRecord
  2
ACAD
 70
     0
  0
APPID
  5
77
330
75
100
AcDbSymbolTableRecord
100
AcDbRegAppTableRecord
  2
ACADANNOTATIVE
 70
     0
  0
ENDTAB
  0
TABLE
  2
DIMSTYLE
  5
78
330
0
100
AcDbSymbolTable
 70
     2
  0
DIMSTYLE
105
79
330
78
100
AcDbSymbolTableRecord
100
AcDbDimStyleTableRecord
  2
STANDARD
 70
     0
  3

  4

  5

  6

  7

 40
0.0
 41
2.5
 42
0.625
 43
3.75
 44
1.25
 45
0.0
 46
0.0
 47
0.0
 48
0.0
140
2.5
141
2.5
142
0.0
143
0.03937007874016
144
1.0
145
0.0
146
1.0
147
0.625
 71
     0
 72
     0
 73
     0
 74
     0
 75
     0
 76
     0
 77
     1
 78
     8
170
     0
171
     3
172
     1
173
     0
174
     0
175
     0
176
     0
177
     0
178
     0
270
     2
271
     2
272
     2
273
     2
274
     3
340
71
275
     0
280
     0
281
     0
282
     0
283
     0
284
     8
285
     0
286
     0
287
     3
288
     0
  0
ENDTAB
  0
TABLE
  2
BLOCK_RECORD
  5
A01
330
0
100
AcDbSymbolTable
  70
5
  0
BLOCK_RECORD
  5
A02
330
A01
100
AcDbSymbolTableRecord
100
AcDbBlockTableRecord
  2
*MODEL_SPACE
  0
BLOCK_RECORD
  5
A03
330
A01
100
AcDbSymbolTableRecord
100
AcDbBlockTableRecord
  2
*PAPER_SPACE
  0
ENDTAB
  0
ENDSEC
  0
SECTION
  2
BLOCKS
  0
BLOCK
  5
A04
330
A02
100
AcDbEntity
  8
0
100
AcDbBlockBegin
  2
*MODEL_SPACE
 70
   0
 10
0
 20
0
 30
0
  3
*MODEL_SPACE
  1
 
  0
ENDBLK
  5
A05
330
A02
100
AcDbEntity
  8
0
100
AcDbBlockEnd
  0
BLOCK
  5
A06
330
A03
100
AcDbEntity
 67
1
  8
0
100
AcDbBlockBegin
  2
*PAPER_SPACE
 70
   0
 10
0
 20
0
 30
0
  3
*PAPER_SPACE
  1
 
  0
ENDBLK
  5
A07
330
A03
100
AcDbEntity
 67
    1
  8
0
100
AcDbBlockEnd
  0
ENDSEC
  0
SECTION
  2
ENTITIES
  0
CIRCLE
  5
A08
330
A02
100
AcDbEntity
  8
Sketch002
100
AcDbCircle
 10
-58.7054
 20
277.884
 40
33
  0
CIRCLE
  5
A09
330
A02
100
AcDbEntity
  8
Sketch002
100
AcDbCircle
 10
-156.698
 20
168.178
 40
33
  0
CIRCLE
  5
A0A
330
A02
100
AcDbEntity
  8
Sketch002
100
AcDbCircle
 10
-175.513
 20
234.563
 40
33
  0
CIRCLE
  5
A0B
330
A02
100
AcDbEntity
  8
Sketch002
100
AcDbCircle
 10
-209.065
 20
294.856
 40
33
  0
CIRCLE
  5
A0C
330
A02
100
AcDbEntity
  8
Sketch002
100
AcDbCircle
 10
-170.756
 20
-77.6582
 40
33
  0
CIRCLE
  5
A0D
330
A02
100
AcDbEntity
  8
Sketch002
100
AcDbCircle
 10
-244.504
 20
235.652
 40
33
  0
CIRCLE
  5
A0E
330
A02
100
AcDbEntity
  8
Sketch002
100
AcDbCircle
 10
23.1202
 20
-117.469
 40
33
  0
CIRCLE
  5
A0F
330
A02
100
AcDbEntity
  8
Sketch002
100
AcDbCircle
 10
-135.811
 20
290.997
 40
33
  0
CIRCLE
  5
A10
330
A02
100
AcDbEntity
  8
Sketch002
100
AcDbCircle
 10
-43.53
 20
-99.6153
 40
33
  0
CIRCLE
  5
A11
330
A02
100
AcDbEntity
  8
Sketch002
100
AcDbCircle
 10
-204.825
 20
103.497
 40
33
  0
CIRCLE
  5
A12
330
A02
100
AcDbEntity
  8
Sketch002
100
AcDbCircle
 10
-106.789
 20
228.397
 40
33
  0
CIRCLE
  5
A13
330
A02
100
AcDbEntity
  8
Sketch002
100
AcDbCircle
 10
84.8253
 20
296.331
 40
33
  0
CIRCLE
  5
A14
330
A02
100
AcDbEntity
  8
Sketch002
100
AcDbCircle
 10
-135.833
 20
102.408
 40
33
  0
CIRCLE
  5
A15
330
A02
100
AcDbEntity
  8
Sketch002
100
AcDbCircle
 10
-102.998
 20
-64.6221
 40
33
  0
CIRCLE
  5
A16
330
A02
100
AcDbEntity
  8
Sketch002
100
AcDbCircle
 10
-207.99
 20
-19.5668
 40
33
  0
CIRCLE
  5
A17
330
A02
100
AcDbEntity
  8
Sketch002
100
AcDbCircle
 10
-225.689
 20
169.267
 40
33
  0
CIRCLE
  5
A18
330
A02
100
AcDbEntity
  8
Sketch002
100
AcDbCircle
 10
161.794
 20
297.202
 40
33
  0
CIRCLE
  5
A19
330
A02
100
AcDbEntity
  8
Sketch002
100
AcDbCircle
 10
-140.232
 20
-6.53064
 40
33
  0
CIRCLE
  5
A1A
330
A02
100
AcDbEntity
  8
Sketch002
100
AcDbCircle
 10
177.407
 20
184.755
 40
33
  0
CIRCLE
  5
A1B
330
A02
100
AcDbEntity
  8
Sketch002
100
AcDbCircle
 10
92.036
 20
-114.061
 40
33
  0
CIRCLE
  5
A1C
330
A02
100
AcDbEntity
  8
Sketch002
100
AcDbCircle
 10
-87.9736
 20
162.012
 40
33
  0
CIRCLE
  5
A1D
330
A02
100
AcDbEntity
  8
Sketch002
100
AcDbCircle
 10
-39.8901
 20
211.499
 40
33
  0
CIRCLE
  5
A1E
330
A02
100
AcDbEntity
  8
Sketch002
100
AcDbCircle
 10
-89.4987
 20
322.434
 40
4
  0
CIRCLE
  5
A1F
330
A02
100
AcDbEntity
  8
Sketch002
100
AcDbCircle
 10
242.272
 20
296.036
 40
33
  0
CIRCLE
  5
A20
330
A02
100
AcDbEntity
  8
Sketch002
100
AcDbCircle
 10
25.2357
 20
188.703
 40
33
  0
LINE
  5
A21
330
A02
100
AcDbEntity
  8
Sketch002
100
AcDbLine
 10
-328.079
 20
236.078
 30
0
 11
-261.853
 21
7.67134
 31
0
  0
ARC
  5
A22
330
A02
100
AcDbEntity
  8
Sketch002
100
AcDbCircle
 10
158.432
 20
129.532
 30
0
 40
437.595
100
AcDbArc
 50
-163.831
 51
-155.689
  0
ARC
  5
A23
330
A02
100
AcDbEntity
  8
Sketch002
100
AcDbCircle
 10
-71.7495
 20
25.5458
 30
0
 40
185.015
100
AcDbArc
 50
-155.689
 51
-90
  0
LINE
  5
A24
330
A02
100
AcDbEntity
  8
Sketch002
100
AcDbLine
 10
85.5075
 20
-159.469
 30
0
 11
-71.7495
 21
-159.469
 31
0
  0
CIRCLE
  5
A25
330
A02
100
AcDbEntity
  8
Sketch001
100
AcDbCircle
 10
52.737
 20
95.1157
 40
5
  0
CIRCLE
  5
A26
330
A02
100
AcDbEntity
  8
Sketch001
100
AcDbCircle
 10
-52.7634
 20
-10.3847
 40
5
  0
CIRCLE
  5
A27
330
A02
100
AcDbEntity
  8
Sketch001
100
AcDbCircle
 10
-52.7634
 20
95.1157
 40
5
  0
CIRCLE
  5
A28
330
A02
100
AcDbEntity
  8
Sketch001
100
AcDbCircle
 10
52.737
 20
-10.3847
 40
5
  0
ARC
  5
A29
330
A02
100
AcDbEntity
  8
Sketch001
100
AcDbCircle
 10
-254.65
 20
70.8092
 30
-36
 40
10
100
AcDbArc
 50
16.1694
 51
-163.831
  0
LINE
  5
A2A
330
A02
100
AcDbEntity
  8
Sketch001
100
AcDbLine
 10
-264.255
 20
68.0244
 30
-36
 11
-248.66
 21
14.2396
 31
-36
  0
ARC
  5
A2B
330
A02
100
AcDbEntity
  8
Sketch001
100
AcDbCircle
 10
-239.056
 20
17.0244
 30
-36
 40
10
100
AcDbArc
 50
-163.831
 51
19.9138
  0
ARC
  5
A2C
330
A02
100
AcDbEntity
  8
Sketch001
100
AcDbCircle
 10
-220.251
 20
23.8366
 30
-36
 40
10
100
AcDbArc
 50
88.3142
 51
-160.086
  0
LINE
  5
A2D
330
A02
100
AcDbEntity
  8
Sketch001
100
AcDbLine
 10
-219.957
 20
33.8322
 30
-36
 11
-135.1
 21
31.3348
 31
-36
  0
ARC
  5
A2E
330
A02
100
AcDbEntity
  8
Sketch001
100
AcDbCircle
 10
-136.277
 20
-8.64791
 30
-36
 40
40
100
AcDbArc
 50
20.5245
 51
88.3142
  0
ARC
  5
A2F
330
A02
100
AcDbEntity
  8
Sketch001
100
AcDbCircle
 10
-0.0132151
 20
42.3655
 30
-36
 40
105.5
100
AcDbArc
 50
-159.476
 51
-90.5156
  0
ARC
  5
A30
330
A02
100
AcDbEntity
  8
Sketch001
100
AcDbCircle
 10
-1.03458
 20
-71.1299
 30
-36
 40
8
100
AcDbArc
 50
6.06135
 51
89.4844
  0
LINE
  5
A31
330
A02
100
AcDbEntity
  8
Sketch001
100
AcDbLine
 10
6.9207
 20
-70.2852
 30
-36
 11
7.31635
 21
-74.0112
 31
-36
  0
ARC
  5
A32
330
A02
100
AcDbEntity
  8
Sketch001
100
AcDbCircle
 10
12.2884
 20
-73.4832
 30
-36
 40
5
100
AcDbArc
 50
-173.939
 51
-83.9387
  0
LINE
  5
A33
330
A02
100
AcDbEntity
  8
Sketch001
100
AcDbLine
 10
12.8164
 20
-78.4553
 30
-36
 11
17.0832
 21
-78.0022
 31
-36
  0
ARC
  5
A34
330
A02
100
AcDbEntity
  8
Sketch001
100
AcDbCircle
 10
21.0958
 20
-115.79
 30
-36
 40
38
100
AcDbArc
 50
44.1911
 51
96.0613
  0
ARC
  5
A35
330
A02
100
AcDbEntity
  8
Sketch001
100
AcDbCircle
 10
55.5127
 20
-82.3312
 30
-36
 40
10
100
AcDbArc
 50
-135.809
 51
-39.609
  0
ARC
  5
A36
330
A02
100
AcDbEntity
  8
Sketch001
100
AcDbCircle
 10
92.4925
 20
-112.933
 30
-36
 40
38
100
AcDbArc
 50
79.1148
 51
140.391
  0
ARC
  5
A37
330
A02
100
AcDbEntity
  8
Sketch001
100
AcDbCircle
 10
102.501
 20
-60.8869
 30
-36
 40
15
100
AcDbArc
 50
-100.885
 51
2.85178
  0
LINE
  5
A38
330
A02
100
AcDbEntity
  8
Sketch001
100
AcDbLine
 10
108.926
 20
111.63
 30
-36
 11
117.483
 21
-60.1407
 31
-36
  0
ARC
  5
A39
330
A02
100
AcDbEntity
  8
Sketch001
100
AcDbCircle
 10
98.9384
 20
111.132
 30
-36
 40
10
100
AcDbArc
 50
2.85178
 51
41.5421
  0
LINE
  5
A3A
330
A02
100
AcDbEntity
  8
Sketch001
100
AcDbLine
 10
73.193
 20
155.268
 30
-36
 11
106.423
 21
117.764
 31
-36
  0
ARC
  5
A3B
330
A02
100
AcDbEntity
  8
Sketch001
100
AcDbCircle
 10
65.7084
 20
148.636
 30
-36
 40
10
100
AcDbArc
 50
41.5421
 51
123.564
  0
ARC
  5
A3C
330
A02
100
AcDbEntity
  8
Sketch001
100
AcDbCircle
 10
24.2431
 20
211.131
 30
-36
 40
65
100
AcDbArc
 50
-98.179
 51
-56.4359
  0
ARC
  5
A3D
330
A02
100
AcDbEntity
  8
Sketch001
100
AcDbCircle
 10
-0.0132151
 20
42.3655
 30
-36
 40
105.5
100
AcDbArc
 50
81.821
 51
156.104
  0
ARC
  5
A3E
330
A02
100
AcDbEntity
  8
Sketch001
100
AcDbCircle
 10
-133.041
 20
101.304
 30
-36
 40
40
100
AcDbArc
 50
-91.6858
 51
-23.8961
  0
LINE
  5
A3F
330
A02
100
AcDbEntity
  8
Sketch001
100
AcDbLine
 10
-235.129
 20
64.2917
 30
-36
 11
-134.218
 21
61.3218
 31
-36
  0
ARC
  5
A40
330
A02
100
AcDbEntity
  8
Sketch001
100
AcDbCircle
 10
-234.835
 20
74.2874
 30
-36
 40
10
100
AcDbArc
 50
-163.831
 51
-91.6858
  0
LINE
  5
A41
330
A02
100
AcDbEntity
  8
Sketch001
100
AcDbLine
 10
-245.046
 20
73.594
 30
-36
 11
-244.44
 21
71.5026
 31
-36
  0
CIRCLE
  5
A42
330
A02
100
AcDbEntity
  8
Sketch001
100
AcDbCircle
 10
98.9384
 20
111.132
 40
5
  0
CIRCLE
  5
A43
330
A02
100
AcDbEntity
  8
Sketch001
100
AcDbCircle
 10
-254.65
 20
70.8092
 40
4
  0
CIRCLE
  5
A44
330
A02
100
AcDbEntity
  8
Sketch001
100
AcDbCircle
 10
-239.056
 20
17.0244
 40
4
  0
CIRCLE
  5
A45
330
A02
100
AcDbEntity
  8
Sketch001
100
AcDbCircle
 10
102.501
 20
-60.8869
 40
5
  0
CIRCLE
  5
A46
330
A02
100
AcDbEntity
  8
Sketch001
100
AcDbCircle
 10
-0.0132151
 20
42.3655
 40
57.15
  0
CIRCLE
  5
A47
330
A02
100
AcDbEntity
  8
Sketch001
100
AcDbCircle
 10
65.7084
 20
148.636
 40
4
  0
CIRCLE
  5
A48
330
A02
100
AcDbEntity
  8
Sketch001
100
AcDbCircle
 10
55.5127
 20
-82.3312
 40
4
  0
LINE
  5
A49
330
A02
100
AcDbEntity
  8
Sketch
100
AcDbLine
 10
-255.863
 20
12.1511
 30
0
 11
-321.863
 21
239.776
 31
0
  0
ARC
  5
A4A
330
A02
100
AcDbEntity
  8
Sketch
100
AcDbCircle
 10
-239.056
 20
17.0244
 30
0
 40
17.5
100
AcDbArc
 50
-163.831
 51
16.1694
  0
LINE
  5
A4B
330
A02
100
AcDbEntity
  8
Sketch
100
AcDbLine
 10
-222.248
 20
21.8978
 30
0
 11
-288.247
 21
249.523
 31
0
  0
LINE
  5
A4C
330
A02
100
AcDbEntity
  8
Sketch
100
AcDbLine
 10
-288.247
 20
249.523
 30
0
 11
-292.216
 21
329.424
 31
0
  0
LINE
  5
A4D
330
A02
100
AcDbEntity
  8
Sketch
100
AcDbLine
 10
-292.216
 20
329.424
 30
0
 11
-80.2168
 21
330.005
 31
0
  0
LINE
  5
A4E
330
A02
100
AcDbEntity
  8
Sketch
100
AcDbLine
 10
-80.2168
 20
330.005
 30
0
 11
13.8534
 21
296.082
 31
0
  0
LINE
  5
A4F
330
A02
100
AcDbEntity
  8
Sketch
100
AcDbLine
 10
101.069
 20
126.157
 30
0
 11
13.8534
 21
296.082
 31
0
  0
LINE
  5
A50
330
A02
100
AcDbEntity
  8
Sketch
100
AcDbLine
 10
22.1931
 20
337.035
 30
0
 11
352.192
 21
337.94
 31
0
  0
LINE
  5
A51
330
A02
100
AcDbEntity
  8
Sketch
100
AcDbLine
 10
352.192
 20
337.94
 30
0
 11
149.151
 21
65.2233
 31
0
  0
LINE
  5
A52
330
A02
100
AcDbEntity
  8
Sketch
100
AcDbLine
 10
22.1931
 20
337.035
 30
0
 11
149.151
 21
65.2233
 31
0
  0
CIRCLE
  5
A53
330
A02
100
AcDbEntity
  8
Sketch
100
AcDbCircle
 10
-131.464
 20
361.922
 40
4
  0
CIRCLE
  5
A54
330
A02
100
AcDbEntity
  8
Sketch
100
AcDbCircle
 10
-239.056
 20
17.0244
 40
4
  0
CIRCLE
  5
A55
330
A02
100
AcDbEntity
  8
Sketch
100
AcDbCircle
 10
-254.65
 20
70.8092
 40
4
  0
CIRCLE
  5
A56
330
A02
100
AcDbEntity
  8
Sketch
100
AcDbCircle
 10
-89.4987
 20
322.434
 40
4
  0
CIRCLE
  5
A57
330
A02
100
AcDbEntity
  8
Sketch
100
AcDbCircle
 10
98.9384
 20
111.132
 40
5
  0
CIRCLE
  5
A58
330
A02
100
AcDbEntity
  8
Sketch
100
AcDbCircle
 10
102.501
 20
-60.8869
 40
5
  0
ENDSEC
  0
SECTION
  2
OBJECTS
  0
DICTIONARY
  5
F000
330
0
100
AcDbDictionary
  3
ACAD_GROUP
350
F001
  0
DICTIONARY
  5
F001
330
F000
100
AcDbDictionary
  0
ENDSEC
  0
EOF